<?xml version="1.0" encoding="UTF-8"?>
<svg width="20px" height="20px" viewBox="0 0 20 20" version="1.1" xmlns="http://www.w3.org/2000/svg" xmlns:xlink="http://www.w3.org/1999/xlink">
    <!-- Generator: Sketch 55.2 (78181) - https://sketchapp.com -->
    <title>Icons/search</title>
    <desc>Created with Sketch.</desc>
    <g id="Symbols" stroke="none" stroke-width="1" fill="none" fill-rule="evenodd">
        <g id="Icons/search" fill="#2C2C2C" fill-rule="nonzero">
            <g id="Shape">
                <path d="M19.80866,18.8843667 L14.4902916,13.5661013 C15.7625514,12.0783836 16.4579763,10.2074252 16.4579763,8.22903539 C16.4579763,6.03103113 15.6018145,3.96463029 14.0475419,2.41038779 C12.4932693,0.85614528 10.4266218,0 8.22878157,0 C6.03052814,0 3.96429388,0.855938681 2.41002127,2.41038779 C0.85595526,3.96442369 0,6.03082454 0,8.22882879 C0,10.426833 0.855748657,12.4932339 2.41022787,14.047683 C3.96429388,15.6017189 6.03052814,16.4580708 8.22898817,16.4580708 C10.2076229,16.4580708 12.0782043,15.7624527 13.5661574,14.4904241 L18.8845258,19.8084829 C19.0122063,19.936161 19.1797612,20 19.3464896,20 C19.5138379,20 19.6807729,19.936161 19.8084534,19.8084829 C20.0638144,19.5535401 20.0638144,19.1397227 19.80866,18.8843667 Z M8.22878157,15.151127 C6.37948021,15.151127 4.64174435,14.4309237 3.33415544,13.1237733 C2.02656653,11.8162097 1.3067625,10.0778877 1.3067625,8.22903539 C1.3067625,6.37997645 2.02677314,4.64186104 3.33415544,3.33450406 C4.64174435,2.02714708 6.37989342,1.30715038 8.22878157,1.30715038 C10.0776697,1.30715038 11.8160254,2.02735368 13.1236143,3.33471066 C14.43079,4.64186104 15.1510072,6.38038965 15.1510072,8.22903539 C15.1510072,10.0780943 14.43079,11.8162097 13.1236143,13.1237733 C11.8160254,14.4307171 10.0774631,15.151127 8.22878157,15.151127 Z"></path>
            </g>
        </g>
    </g>
</svg>